<?xml version="1.0" encoding="utf-8"?>
<!-- Generator: Adobe Illustrator 23.0.2, SVG Export Plug-In . SVG Version: 6.00 Build 0)  -->
<svg version="1.1" id="레이어_1" xmlns="http://www.w3.org/2000/svg" xmlns:xlink="http://www.w3.org/1999/xlink" x="0px"
	 y="0px" viewBox="0 0 24 24" style="enable-background:new 0 0 24 24;" xml:space="preserve">
<style type="text/css">
	.st0{fill:white;}
</style>
<path class="st0" d="M6,7c0,0,0-5,4.5-5S15,2,15,2s-0.9,5-4.5,5S6,7,6,7z"/>
<path class="st0" d="M18.81,8.5h-1.05H1v7.54h0.03c0.33,3.61,3.94,6.46,8.35,6.46c3.96,0,7.27-2.3,8.14-5.38h1.29
	c2.31,0,4.19-1.93,4.19-4.31C23,10.43,21.12,8.5,18.81,8.5z M18.81,14.96h-1.05v-4.31h1.05c1.16,0,2.1,0.96,2.1,2.15
	C20.9,14,19.97,14.96,18.81,14.96z"/>
</svg>
